<svg id="Kompionier" xmlns="http://www.w3.org/2000/svg" viewBox="0 0 433.08 110.88">
  <defs>
    <style>
      .cls-1 {
        fill: #f0bb4c;
      }

      .cls-2 {
        fill: #1c3347;
      }

      .cls-3 {
        fill: #21384d;
      }
    </style>
  </defs>
  <g id="Logo">
    <path class="cls-1" d="M79,36a4,4,0,1,1-4,4,4,4,0,0,1,4-4m0-3a7,7,0,1,0,7,7,7,7,0,0,0-7-7Z" transform="translate(-30 -31)"/>
    <path class="cls-1" d="M37,78a4,4,0,1,1-4,4,4,4,0,0,1,4-4m0-3a7,7,0,1,0,7,7,7,7,0,0,0-7-7Z" transform="translate(-30 -31)"/>
    <path class="cls-1" d="M81,78a4,4,0,1,1-4,4,4,4,0,0,1,4-4m0-3a7,7,0,1,0,7,7,7,7,0,0,0-7-7Z" transform="translate(-30 -31)"/>
    <path class="cls-1" d="M59,56a4,4,0,1,1-4,4,4,4,0,0,1,4-4m0-3a7,7,0,1,0,7,7,7,7,0,0,0-7-7Z" transform="translate(-30 -31)"/>
    <path class="cls-1" d="M37,34a4,4,0,1,1-4,4,4,4,0,0,1,4-4m0-3a7,7,0,1,0,7,7,7,7,0,0,0-7-7Z" transform="translate(-30 -31)"/>
    <path class="cls-1" d="M37.07,34A3.93,3.93,0,0,1,41,37.93V82.07A3.93,3.93,0,0,1,37.07,86h-.14A3.93,3.93,0,0,1,33,82.07V37.93A3.93,3.93,0,0,1,36.93,34h.14m0-3h-.14A6.93,6.93,0,0,0,30,37.93V82.07A6.93,6.93,0,0,0,36.93,89h.14A6.93,6.93,0,0,0,44,82.07V37.93A6.93,6.93,0,0,0,37.07,31Z" transform="translate(-30 -31)"/>
    <path class="cls-1" d="M79.29,35.5a3.62,3.62,0,0,1,2.6,1.1,3.91,3.91,0,0,1,0,5.46L39.32,85.4a3.63,3.63,0,0,1-5.21,0,3.91,3.91,0,0,1,0-5.46L76.68,36.6a3.65,3.65,0,0,1,2.61-1.1m0-3a6.65,6.65,0,0,0-4.75,2L32,77.84a6.9,6.9,0,0,0,0,9.66h0a6.63,6.63,0,0,0,9.49,0L84,44.16a6.9,6.9,0,0,0,0-9.66h0a6.63,6.63,0,0,0-4.74-2Z" transform="translate(-30 -31)"/>
    <path class="cls-1" d="M59,56a4,4,0,0,1,2.84,1.18L83.82,79.13a4,4,0,1,1-5.69,5.69L56.18,62.87A4,4,0,0,1,59,56m0-3a7,7,0,0,0-5,2.06h0a7,7,0,0,0,0,9.93l22,22a7,7,0,0,0,9.93,0h0a7,7,0,0,0,0-9.93L64,55.06A7,7,0,0,0,59,53Z" transform="translate(-30 -31)"/>
  </g>
  <g id="Nazwa">
    <path class="cls-2" d="M121.74,73.15V49a2.85,2.85,0,0,1,.81-2.13,3.35,3.35,0,0,1,4.32,0,2.85,2.85,0,0,1,.81,2.13V59.62l18.41-12.45a5.19,5.19,0,0,1,2.8-1.09,2.83,2.83,0,0,1,2,.77,2.53,2.53,0,0,1,.81,1.9A3.33,3.33,0,0,1,150,51.5l-11.92,8,12.25,10.58c1.45,1.19,2.17,2.25,2.17,3.16a2.69,2.69,0,0,1-.81,2,2.74,2.74,0,0,1-2,.81,5.5,5.5,0,0,1-3.27-1.62L133,63l-5.3,3.62v6.58a2.81,2.81,0,0,1-.81,2.12,3.35,3.35,0,0,1-4.32,0A2.81,2.81,0,0,1,121.74,73.15Z" transform="translate(-30 -31)"/>
    <path class="cls-2" d="M160,72.07a13.64,13.64,0,0,1-4.84-11,13.44,13.44,0,0,1,4.84-11q4.78-4,12.34-4t12.34,4a13.47,13.47,0,0,1,4.84,11,13.67,13.67,0,0,1-4.84,11q-4.83,4-12.34,4T160,72.07Zm4.32-18.16a8.91,8.91,0,0,0-3.09,7.16,8.91,8.91,0,0,0,3.09,7.17,12.13,12.13,0,0,0,8,2.62,11.94,11.94,0,0,0,8-2.62,8.86,8.86,0,0,0,3.14-7.17,8.85,8.85,0,0,0-3.14-7.16,11.89,11.89,0,0,0-8-2.62A12.08,12.08,0,0,0,164.28,53.91Z" transform="translate(-30 -31)"/>
    <path class="cls-2" d="M228.37,49.41V73.15a2.81,2.81,0,0,1-.81,2.12,3,3,0,0,1-2.16.79,2.92,2.92,0,0,1-2.16-.79,2.81,2.81,0,0,1-.81-2.12V55.66l-7.8,8.54a3.35,3.35,0,0,1-2.57,1.25,3.46,3.46,0,0,1-2.61-1.25l-7.8-8.54V73.15a2.81,2.81,0,0,1-.81,2.12,3,3,0,0,1-2.16.79,2.92,2.92,0,0,1-2.16-.79,2.81,2.81,0,0,1-.81-2.12V49.41a3.39,3.39,0,0,1,.83-2.51,2.89,2.89,0,0,1,2.14-.82,3.68,3.68,0,0,1,1.89.42,11.19,11.19,0,0,1,1.93,1.67L212,58.66l9.54-10.49A13.92,13.92,0,0,1,222.73,47a4,4,0,0,1,2.67-.92,2.9,2.9,0,0,1,2.14.82A3.39,3.39,0,0,1,228.37,49.41Z" transform="translate(-30 -31)"/>
    <path class="cls-2" d="M235.87,73.15v-21c0-2.47.4-4,1.19-4.62s2.38-1,4.75-1h13.57A10.12,10.12,0,0,1,262.59,49a8.91,8.91,0,0,1,2.76,6.83,8.91,8.91,0,0,1-2.76,6.83,10.12,10.12,0,0,1-7.21,2.54H241.81v7.91a2.84,2.84,0,0,1-.8,2.12,3.36,3.36,0,0,1-4.33,0A2.81,2.81,0,0,1,235.87,73.15ZM255,51.91h-12.3c-.4,0-.64.08-.72.23a2.41,2.41,0,0,0-.13,1v6.66H255c3,0,4.45-1.31,4.45-4S257.93,51.91,255,51.91Z" transform="translate(-30 -31)"/>
    <path class="cls-2" d="M288.13,75.65H273.71c-2,0-3-.9-3-2.71s1-2.71,3-2.71H278V51.91h-4.24q-3,0-3-2.7c0-1.81,1-2.71,3-2.71h14.42c2,0,3,.9,3,2.71s-1,2.7-3,2.7h-4.24V70.23h4.24c2,0,3,.91,3,2.71S290.11,75.65,288.13,75.65Z" transform="translate(-30 -31)"/>
    <path class="cls-2" d="M300.05,72.07a13.64,13.64,0,0,1-4.84-11,13.44,13.44,0,0,1,4.84-11q4.79-4,12.34-4t12.34,4a13.47,13.47,0,0,1,4.83,11,13.66,13.66,0,0,1-4.83,11q-4.83,4-12.34,4T300.05,72.07Zm4.32-18.16a8.91,8.91,0,0,0-3.09,7.16,8.91,8.91,0,0,0,3.09,7.17,12.13,12.13,0,0,0,8,2.62,11.94,11.94,0,0,0,8-2.62,8.86,8.86,0,0,0,3.14-7.17,8.85,8.85,0,0,0-3.14-7.16,11.89,11.89,0,0,0-8-2.62A12.08,12.08,0,0,0,304.37,53.91Z" transform="translate(-30 -31)"/>
    <path class="cls-2" d="M335.8,73.15V49a2.85,2.85,0,0,1,.81-2.13,3,3,0,0,1,2.16-.79,3.88,3.88,0,0,1,1.91.46,9.36,9.36,0,0,1,1.91,1.63L360,66.49V49a2.84,2.84,0,0,1,.8-2.13,3.36,3.36,0,0,1,4.33,0,2.88,2.88,0,0,1,.8,2.13V73.15a2.84,2.84,0,0,1-.8,2.12,3,3,0,0,1-2.17.79,3.78,3.78,0,0,1-1.9-.48,8.09,8.09,0,0,1-1.91-1.6L341.74,55.66V73.15a2.81,2.81,0,0,1-.81,2.12,3,3,0,0,1-2.16.79,2.92,2.92,0,0,1-2.16-.79A2.81,2.81,0,0,1,335.8,73.15Z" transform="translate(-30 -31)"/>
    <path class="cls-2" d="M390,75.65H375.54c-2,0-3-.9-3-2.71s1-2.71,3-2.71h4.24V51.91h-4.24q-3,0-3-2.7c0-1.81,1-2.71,3-2.71H390c2,0,3,.9,3,2.71s-1,2.7-3,2.7h-4.24V70.23H390c2,0,3,.91,3,2.71S391.94,75.65,390,75.65Z" transform="translate(-30 -31)"/>
    <path class="cls-2" d="M420.79,63.57H405.53V69a6.19,6.19,0,0,0,0,.73.53.53,0,0,0,.21.36.93.93,0,0,0,.61.16h18.24c2,0,3,.91,3,2.71s-1,2.71-3,2.71H405.53c-2.35,0-3.93-.32-4.75-1s-1.19-2.22-1.19-4.66V52.12c0-2.47.39-4,1.19-4.62s2.37-1,4.75-1h19.08c2,0,3,.9,3,2.71s-1,2.7-3,2.7H406.37c-.39,0-.63.08-.72.23a2.66,2.66,0,0,0-.12,1v5h15.26c2,0,3,.9,3,2.71S422.77,63.57,420.79,63.57Z" transform="translate(-30 -31)"/>
    <path class="cls-2" d="M449.89,65.24h-9.71v7.91a2.81,2.81,0,0,1-.81,2.12,3,3,0,0,1-2.16.79,2.92,2.92,0,0,1-2.16-.79,2.81,2.81,0,0,1-.81-2.12v-21c0-2.47.4-4,1.19-4.62s2.37-1,4.75-1H452.9A10.14,10.14,0,0,1,460.11,49a8.91,8.91,0,0,1,2.76,6.83,8.47,8.47,0,0,1-1.7,5.35,9.87,9.87,0,0,1-4.71,3.23l5.22,6.2a4.86,4.86,0,0,1,1.4,2.83,2.34,2.34,0,0,1-.85,1.83,2.9,2.9,0,0,1-2,.75,4.44,4.44,0,0,1-3.27-2Zm2.59-13.33H441c-.4,0-.64.08-.73.23a2.66,2.66,0,0,0-.12,1v6.66h12.3c3,0,4.45-1.31,4.45-4S455.45,51.91,452.48,51.91Z" transform="translate(-30 -31)"/>
  </g>
  <g id="Motto">
    <path class="cls-3" d="M109.29,134.68a1,1,0,0,1-.3.7.94.94,0,0,1-.7.29.92.92,0,0,1-.69-.29,1,1,0,0,1-.3-.72v-15.4a1,1,0,0,1,.29-.72,1,1,0,0,1,.73-.3h5.35a6.07,6.07,0,0,1,2.39.47A6.21,6.21,0,0,1,118,120a6.42,6.42,0,0,1,1.32,1.94,5.94,5.94,0,0,1,.49,2.39,5.85,5.85,0,0,1-.47,2.38,5.9,5.9,0,0,1-3.23,3.23,6.07,6.07,0,0,1-2.39.47h-4.35Zm4.34-6.16a3.84,3.84,0,0,0,1.6-.32,4.57,4.57,0,0,0,1.32-.89,4.81,4.81,0,0,0,.9-1.32,4.11,4.11,0,0,0,0-3.18,4.81,4.81,0,0,0-.9-1.32,4.42,4.42,0,0,0-1.3-.89,3.93,3.93,0,0,0-1.59-.32h-4.37v8.24Z" transform="translate(-30 -31)"/>
    <path class="cls-3" d="M124.43,119.36a1.11,1.11,0,0,1-.33.82,1.21,1.21,0,0,1-1.64,0,1.11,1.11,0,0,1-.33-.82,1.15,1.15,0,1,1,2.3,0Zm-2.12,15.27V124.2a.93.93,0,0,1,.3-.69,1,1,0,0,1,1.69.72v10.43a1,1,0,0,1-1.74.72.94.94,0,0,1-.25-.7Z" transform="translate(-30 -31)"/>
    <path class="cls-3" d="M132.36,135.63a8.44,8.44,0,0,1-1.25-.1,5.42,5.42,0,0,1-1.17-.35,10.47,10.47,0,0,1-1.06-.54,4.61,4.61,0,0,1-.91-.7,6.55,6.55,0,0,1-1.35-2,6.16,6.16,0,0,1-.47-2.43,5.92,5.92,0,0,1,.5-2.44,6.35,6.35,0,0,1,1.34-2,6.47,6.47,0,0,1,2-1.35,6.08,6.08,0,0,1,2.44-.49,6.22,6.22,0,0,1,2.45.47,6.41,6.41,0,0,1,3.34,3.3,6,6,0,0,1,.5,2.41,5.93,5.93,0,0,1-.48,2.41,6.17,6.17,0,0,1-1.34,2,6.32,6.32,0,0,1-2,1.34,6,6,0,0,1-2.42.48Zm-.05-1.82a4.24,4.24,0,0,0,3-1.21,4.31,4.31,0,0,0,.9-1.35,4.16,4.16,0,0,0,.35-1.63,4,4,0,0,0-.33-1.64,4.68,4.68,0,0,0-.89-1.34,4.83,4.83,0,0,0-1.35-.9,4.26,4.26,0,0,0-1.65-.35,4,4,0,0,0-1.64.33,4.47,4.47,0,0,0-1.35.89,4.27,4.27,0,0,0-.9,1.34,4.17,4.17,0,0,0-.32,1.64,4,4,0,0,0,.35,1.64,3.6,3.6,0,0,0,.9,1.34,3.7,3.7,0,0,0,1.34.89,4.66,4.66,0,0,0,.76.27,3.91,3.91,0,0,0,.79.08Z" transform="translate(-30 -31)"/>
    <path class="cls-3" d="M151.24,128.65a3,3,0,0,0-.2-.72c-.12-.27-.24-.53-.37-.77a2.18,2.18,0,0,0-.46-.65,4.88,4.88,0,0,0-.63-.53,4.16,4.16,0,0,0-.76-.44,2.46,2.46,0,0,0-.94-.18l-1,0a4,4,0,0,0-1.64.33A4.1,4.1,0,0,0,143,127.9a4.17,4.17,0,0,0-.32,1.64v5.22a1,1,0,0,1-1.7.69,1,1,0,0,1-.3-.72V124.3a1,1,0,0,1,1.75-.72,1,1,0,0,1,.3.7V125a7.22,7.22,0,0,1,1.94-1.25,6.14,6.14,0,0,1,2.32-.44,6.26,6.26,0,0,1,2.45.47,6.41,6.41,0,0,1,3.34,3.3,6,6,0,0,1,.5,2.41v5.22a1,1,0,0,1-.3.69,1,1,0,0,1-.7.3,1,1,0,0,1-.7-.3,1,1,0,0,1-.3-.72v-5.21A4.57,4.57,0,0,0,151.24,128.65Z" transform="translate(-30 -31)"/>
    <path class="cls-3" d="M157.89,119.36a1.1,1.1,0,0,1-.32.82,1.15,1.15,0,0,1-2-.82,1.12,1.12,0,0,1,.32-.82,1.22,1.22,0,0,1,1.65,0A1.08,1.08,0,0,1,157.89,119.36Zm-2.12,15.27V124.2a.93.93,0,0,1,.3-.69,1,1,0,0,1,.7-.3,1,1,0,0,1,1,1v10.43a1,1,0,1,1-2,0Z" transform="translate(-30 -31)"/>
    <path class="cls-3" d="M161.69,130.41c.06.23.14.48.23.74a3.17,3.17,0,0,0,.34.69,6,6,0,0,0,.41.55,2.14,2.14,0,0,0,.49.46,5.38,5.38,0,0,0,1.22.67,4,4,0,0,0,1.42.24,4.39,4.39,0,0,0,3-1.24,1.11,1.11,0,0,1,1.45,0,1.08,1.08,0,0,1,.27.7,1.06,1.06,0,0,1-.27.69,6.33,6.33,0,0,1-2,1.36,5.94,5.94,0,0,1-2.42.48,6,6,0,0,1-2.41-.5,6.1,6.1,0,0,1-2-1.34,6.26,6.26,0,0,1-1.33-2,6.39,6.39,0,0,1,0-4.86,6.37,6.37,0,0,1,1.33-2,6.44,6.44,0,0,1,2-1.34,6.05,6.05,0,0,1,2.44-.5,6.17,6.17,0,0,1,2.44.47,6.47,6.47,0,0,1,2,1.35,6.37,6.37,0,0,1,1.35,2,6,6,0,0,1,.49,2.41,1,1,0,0,1-.3.69.93.93,0,0,1-.69.3h-9.5Zm8.2-1.84a5.1,5.1,0,0,0-.55-1.28,4,4,0,0,0-.9-1,5.45,5.45,0,0,0-1.19-.66,4.19,4.19,0,0,0-2.85,0,5,5,0,0,0-1.22.66,3.34,3.34,0,0,0-.92,1,5.1,5.1,0,0,0-.55,1.28h8.18Z" transform="translate(-30 -31)"/>
    <path class="cls-3" d="M174.09,123.84a.69.69,0,0,1,.19-.31.82.82,0,0,1,.31-.2,1.36,1.36,0,0,1,.36,0,1,1,0,0,1,.73.3,1,1,0,0,1,.29.7V125a7.27,7.27,0,0,1,1.95-1.25,6.1,6.1,0,0,1,2.32-.44,1,1,0,0,1,.72.3.93.93,0,0,1,.3.69,1,1,0,0,1-.3.7.94.94,0,0,1-.7.29,4,4,0,0,0-1.64.33,4.47,4.47,0,0,0-1.35.89,4.27,4.27,0,0,0-.9,1.34,4.21,4.21,0,0,0-.32,1.64v5.22a1,1,0,0,1-1,1,1,1,0,0,1-.7-.3,1,1,0,0,1-.3-.72V124.2A2,2,0,0,1,174.09,123.84Z" transform="translate(-30 -31)"/>
    <path class="cls-3" d="M194,124.2v11.43a6,6,0,0,1-.49,2.43,6.73,6.73,0,0,1-1.35,2,6.44,6.44,0,0,1-2,1.34,6.08,6.08,0,0,1-2.44.49,1,1,0,0,1-.72-.3.93.93,0,0,1-.3-.69,1,1,0,0,1,.3-.7,1,1,0,0,1,.7-.29,4.31,4.31,0,0,0,3-1.22,4.5,4.5,0,0,0,.9-1.34,4.17,4.17,0,0,0,.32-1.64V124.28a1,1,0,0,1,.3-.7.91.91,0,0,1,.37-.22,1.35,1.35,0,0,1,.43-.08,1,1,0,0,1,.75.3,1,1,0,0,1,.17.3,1,1,0,0,1,.07.35Zm0-4.74a1.14,1.14,0,0,1-.32.82,1.16,1.16,0,0,1-.83.32,1.14,1.14,0,0,1-.82-.32,1.1,1.1,0,0,1-.32-.82,1.08,1.08,0,0,1,.32-.82,1.1,1.1,0,0,1,.82-.32,1.1,1.1,0,0,1,1.15,1.14Z" transform="translate(-30 -31)"/>
    <path class="cls-3" d="M198.37,130.41c.06.23.14.48.23.74a3.7,3.7,0,0,0,.34.69,6,6,0,0,0,.41.55,2.37,2.37,0,0,0,.49.46,5.38,5.38,0,0,0,1.22.67,4.18,4.18,0,0,0,3.07-.11,4.23,4.23,0,0,0,1.35-.89,1.08,1.08,0,0,1,.72-.27.94.94,0,0,1,1,1,1.07,1.07,0,0,1-.28.69,6.28,6.28,0,0,1-2,1.36,6.22,6.22,0,0,1-4.84,0,6.25,6.25,0,0,1-3.3-3.33,6.33,6.33,0,0,1,0-4.86,6.2,6.2,0,0,1,1.33-2,6.28,6.28,0,0,1,2-1.34,6.09,6.09,0,0,1,2.44-.5,6.26,6.26,0,0,1,2.45.47,6.48,6.48,0,0,1,3.34,3.31,6,6,0,0,1,.5,2.41,1,1,0,0,1-1,1h-9.5Zm8.2-1.84a4.76,4.76,0,0,0-.55-1.28,4,4,0,0,0-.89-1,5.3,5.3,0,0,0-1.2-.66,4.16,4.16,0,0,0-2.84,0,5,5,0,0,0-1.23.66,3.62,3.62,0,0,0-.92,1,5.49,5.49,0,0,0-.55,1.28h8.18Z" transform="translate(-30 -31)"/>
    <path class="cls-3" d="M211.44,135.63a1,1,0,0,1-.7-.3.94.94,0,0,1-.3-.67,1,1,0,0,1,.3-.72,1,1,0,0,1,.72-.3h5.36a1.62,1.62,0,1,0,0-3.23h-2.74a3.45,3.45,0,0,1-1.42-.3,3.74,3.74,0,0,1-1.15-.77,3.58,3.58,0,0,1-.77-1.14,3.49,3.49,0,0,1,0-2.83,3.58,3.58,0,0,1,.77-1.14,3.74,3.74,0,0,1,1.15-.77,3.45,3.45,0,0,1,1.42-.3H218a1,1,0,0,1,.72.3,1,1,0,0,1-.7,1.69H214.1a1.61,1.61,0,1,0,0,3.22h2.75a3.45,3.45,0,0,1,1.42.3,3.93,3.93,0,0,1,1.15.77,4,4,0,0,1,.77,1.14,3.45,3.45,0,0,1,.3,1.42,3.37,3.37,0,0,1-.3,1.41,3.56,3.56,0,0,1-1.92,1.92,3.45,3.45,0,0,1-1.42.3h-5.41Z" transform="translate(-30 -31)"/>
    <path class="cls-3" d="M224.78,131.93a1.65,1.65,0,0,0,.47,1.21,1.71,1.71,0,0,0,1.25.52,1.48,1.48,0,0,0,.61-.12,2.2,2.2,0,0,0,.54-.4.9.9,0,0,1,.67-.27,1.09,1.09,0,0,1,.72.27,1,1,0,0,1,0,1.4,3.71,3.71,0,0,1-1.17.81,3.63,3.63,0,0,1-2.89,0,3.78,3.78,0,0,1-1.16-.79,3.83,3.83,0,0,1-.79-1.17,3.58,3.58,0,0,1-.3-1.47V119.26a1,1,0,0,1,.3-.72,1,1,0,0,1,.71-.3,1,1,0,0,1,1,1v4h2.75a1,1,0,0,1,.72.3.93.93,0,0,1,.3.69,1,1,0,0,1-.3.7.94.94,0,0,1-.7.29h-2.74v6.74Z" transform="translate(-30 -31)"/>
    <path class="cls-3" d="M242.13,131.93a1.62,1.62,0,0,0,.48,1.21,1.69,1.69,0,0,0,1.24.52,1.49,1.49,0,0,0,.62-.12,2,2,0,0,0,.53-.4.92.92,0,0,1,.67-.27,1.12,1.12,0,0,1,.73.27,1,1,0,0,1,0,1.4,3.83,3.83,0,0,1-1.17.81,3.65,3.65,0,0,1-2.9,0,3.91,3.91,0,0,1-1.16-.79,3.83,3.83,0,0,1-.79-1.17,3.74,3.74,0,0,1-.29-1.47V119.26a1,1,0,0,1,.29-.72,1,1,0,0,1,.72-.3,1,1,0,0,1,1,1v4h2.74a1,1,0,0,1,.73.3,1,1,0,0,1,.29.69,1,1,0,0,1-.29.7,1,1,0,0,1-.7.29h-2.75v6.74Z" transform="translate(-30 -31)"/>
    <path class="cls-3" d="M248.59,124.65a1.49,1.49,0,0,1-.13-.39.63.63,0,0,1,0-.38.93.93,0,0,1,.48-.5.85.85,0,0,1,.74,0,1,1,0,0,1,.58.52l4.34,9.47,4.34-9.47a1,1,0,0,1,.57-.52.87.87,0,0,1,.75,0,1.11,1.11,0,0,1,.52.55.82.82,0,0,1-.05.74l-6.23,13.61a7.51,7.51,0,0,1-.95,1.47,5.47,5.47,0,0,1-1.3,1.14,5.75,5.75,0,0,1-1.59.74,6.07,6.07,0,0,1-1.8.25,1,1,0,0,1-.7-.3,1,1,0,0,1-.3-.72,1,1,0,0,1,.3-.72,1,1,0,0,1,.73-.29,4.32,4.32,0,0,0,2.34-.67,3.89,3.89,0,0,0,1.55-1.79l.8-1.76-5-11Z" transform="translate(-30 -31)"/>
    <path class="cls-3" d="M265.25,134.68a1,1,0,0,1-.3.7.94.94,0,0,1-.7.29.92.92,0,0,1-.69-.29,1,1,0,0,1-.3-.72V118a1,1,0,0,1,.3-.72,1,1,0,0,1,.72-.3,1,1,0,0,1,.72.3.9.9,0,0,1,.25.69v16.69Z" transform="translate(-30 -31)"/>
    <path class="cls-3" d="M269.27,135.48a.92.92,0,0,1-.68.29,1,1,0,0,1-.7-.29,1,1,0,0,1-.3-.72V118.12a1,1,0,0,1,1.75-.72,1,1,0,0,1,.3.69v14.23l8.78-8.71a.82.82,0,0,1,.67-.3,1,1,0,0,1,1,1,.83.83,0,0,1-.3.67l-4.51,4.52,4.51,4.52a.86.86,0,0,1,.3.67.83.83,0,0,1-.3.67.86.86,0,0,1-.67.3.82.82,0,0,1-.67-.3l-4.54-4.5Z" transform="translate(-30 -31)"/>
    <path class="cls-3" d="M287.79,135.63a8.3,8.3,0,0,1-1.24-.1,5.42,5.42,0,0,1-1.17-.35,9.51,9.51,0,0,1-1.06-.54,4.33,4.33,0,0,1-.91-.7,6.37,6.37,0,0,1-1.35-2,6,6,0,0,1-.48-2.43,6.09,6.09,0,0,1,.5-2.44,6.38,6.38,0,0,1,1.35-2,6.47,6.47,0,0,1,2-1.35,6,6,0,0,1,2.44-.49,6.17,6.17,0,0,1,2.44.47,6.44,6.44,0,0,1,2,1.34,6.17,6.17,0,0,1,1.34,2,5.85,5.85,0,0,1,.5,2.41,5.92,5.92,0,0,1-.47,2.41,6.47,6.47,0,0,1-3.32,3.3,5.94,5.94,0,0,1-2.42.48Zm-.05-1.82a4.22,4.22,0,0,0,1.65-.32,4.29,4.29,0,0,0,1.35-.89,4.47,4.47,0,0,0,.89-1.35,4.16,4.16,0,0,0,0-3.27,4.51,4.51,0,0,0-.9-1.34,4.64,4.64,0,0,0-1.34-.9,4.26,4.26,0,0,0-1.65-.35,4.05,4.05,0,0,0-1.65.33,4.3,4.3,0,0,0-1.34.89,4.11,4.11,0,0,0-.9,1.34,4,4,0,0,0-.33,1.64,4.21,4.21,0,0,0,.35,1.64,4.1,4.1,0,0,0,2.25,2.23,4.35,4.35,0,0,0,.76.27,3.81,3.81,0,0,0,.78.08Z" transform="translate(-30 -31)"/>
    <path class="cls-3" d="M306.85,124.2v11.43a6,6,0,0,1-.5,2.43,6.32,6.32,0,0,1-3.34,3.33,6.13,6.13,0,0,1-2.45.49,1,1,0,0,1-.72-.3.93.93,0,0,1-.3-.69,1,1,0,0,1,.3-.7,1,1,0,0,1,.7-.29,4.31,4.31,0,0,0,3-1.22,4.32,4.32,0,0,0,.9-1.34,4.17,4.17,0,0,0,.32-1.64V124.28a1,1,0,0,1,.68-.92,1.3,1.3,0,0,1,.42-.08,1,1,0,0,1,.75.3,1.21,1.21,0,0,1,.25.65Zm0-4.74a1.15,1.15,0,1,1-2.29,0,1.12,1.12,0,0,1,.32-.82,1.22,1.22,0,0,1,1.65,0A1.12,1.12,0,0,1,306.87,119.46Z" transform="translate(-30 -31)"/>
    <path class="cls-3" d="M311.26,130.41c.07.23.15.48.24.74a3.15,3.15,0,0,0,.33.69,6.11,6.11,0,0,0,.42.55,2.32,2.32,0,0,0,.48.46,5.38,5.38,0,0,0,1.22.67,4.13,4.13,0,0,0,1.43.24,4.07,4.07,0,0,0,1.64-.35,4,4,0,0,0,1.35-.89,1.09,1.09,0,0,1,.72-.27,1.08,1.08,0,0,1,.72.27,1,1,0,0,1,.28.7,1,1,0,0,1-.28.69,6.28,6.28,0,0,1-2,1.36,6,6,0,0,1-2.42.48,6.06,6.06,0,0,1-2.42-.5,6.21,6.21,0,0,1-2-1.34,6.43,6.43,0,0,1-1.33-2,6.45,6.45,0,0,1,0-4.86,6.2,6.2,0,0,1,3.32-3.33,6.13,6.13,0,0,1,2.45-.5,6.21,6.21,0,0,1,2.44.47,6.43,6.43,0,0,1,2,1.35,6.2,6.2,0,0,1,1.35,2,6,6,0,0,1,.5,2.41,1,1,0,0,1-1,1h-9.5Zm8.21-1.84a5.49,5.49,0,0,0-.55-1.28,4.24,4.24,0,0,0-.9-1,5.3,5.3,0,0,0-1.2-.66,4.16,4.16,0,0,0-2.84,0,5,5,0,0,0-1.22.66,3.5,3.5,0,0,0-.93,1,5.08,5.08,0,0,0-.54,1.28h8.18Z" transform="translate(-30 -31)"/>
    <path class="cls-3" d="M335.72,134.78a1,1,0,0,1-1,1,1,1,0,0,1-1-1v-.67a6.23,6.23,0,0,1-2,1.21,6.13,6.13,0,0,1-4.73-.05,6.38,6.38,0,0,1-3.32-3.33,5.92,5.92,0,0,1-.48-2.43,6,6,0,0,1,.5-2.43,6.3,6.3,0,0,1,3.35-3.33,6.05,6.05,0,0,1,2.44-.5,6.25,6.25,0,0,1,2.32.44,6.19,6.19,0,0,1,1.94,1.21V118a1,1,0,0,1,.3-.72.91.91,0,0,1,.65-.3.94.94,0,0,1,.7.25,1,1,0,0,1,.27.74v16.79Zm-6.28-.94a4.34,4.34,0,0,0,3-1.25,4.15,4.15,0,0,0,.9-1.34,4.26,4.26,0,0,0,.35-1.65,4,4,0,0,0-.33-1.64,4,4,0,0,0-2.24-2.24,4.08,4.08,0,0,0-1.65-.35,4.21,4.21,0,0,0-1.64.32,4.16,4.16,0,0,0-2.25,2.24,4.21,4.21,0,0,0,0,3.29,4.1,4.1,0,0,0,2.24,2.24,5.46,5.46,0,0,0,.8.28,3.75,3.75,0,0,0,.82.1Z" transform="translate(-30 -31)"/>
    <path class="cls-3" d="M339.89,130.41a7,7,0,0,0,.24.74,3.15,3.15,0,0,0,.33.69c.14.2.27.38.41.55a2.37,2.37,0,0,0,.49.46,5.38,5.38,0,0,0,1.22.67,4.18,4.18,0,0,0,3.07-.11,4.23,4.23,0,0,0,1.35-.89,1.08,1.08,0,0,1,.72-.27,1.09,1.09,0,0,1,.72.27,1,1,0,0,1,.28.7,1,1,0,0,1-.28.69,6.28,6.28,0,0,1-2,1.36,6.22,6.22,0,0,1-4.84,0,6.25,6.25,0,0,1-3.3-3.33,6.33,6.33,0,0,1,0-4.86,6.2,6.2,0,0,1,1.33-2,6.28,6.28,0,0,1,2-1.34,6.09,6.09,0,0,1,2.44-.5,6.22,6.22,0,0,1,2.45.47,6.48,6.48,0,0,1,3.34,3.31,6,6,0,0,1,.5,2.41,1,1,0,0,1-1,1h-9.5Zm8.2-1.84a4.76,4.76,0,0,0-.55-1.28,4,4,0,0,0-.89-1,5.3,5.3,0,0,0-1.2-.66,4.16,4.16,0,0,0-2.84,0,5,5,0,0,0-1.23.66,3.62,3.62,0,0,0-.92,1,5.49,5.49,0,0,0-.55,1.28h8.18Z" transform="translate(-30 -31)"/>
    <path class="cls-3" d="M362.66,128.65a3,3,0,0,0-.2-.72c-.12-.27-.24-.53-.36-.77a2.41,2.41,0,0,0-.47-.65A4.88,4.88,0,0,0,361,126a4.16,4.16,0,0,0-.76-.44,2.46,2.46,0,0,0-.94-.18l-1,0a4,4,0,0,0-1.64.33,4.35,4.35,0,0,0-1.35.89,4.27,4.27,0,0,0-.9,1.34,4.17,4.17,0,0,0-.32,1.64v5.22a1,1,0,0,1-1.7.69,1,1,0,0,1-.3-.72V124.3a1,1,0,0,1,1.75-.72,1,1,0,0,1,.3.7V125a7.22,7.22,0,0,1,1.94-1.25,6.14,6.14,0,0,1,2.32-.44,6.26,6.26,0,0,1,2.45.47,6.41,6.41,0,0,1,3.34,3.3,6,6,0,0,1,.5,2.41v5.22a1,1,0,0,1-1.7.69,1,1,0,0,1-.3-.72v-5.21A4.57,4.57,0,0,0,362.66,128.65Z" transform="translate(-30 -31)"/>
  </g>
</svg>
