<?xml version="1.0" encoding="utf-8"?>
<!-- Generator: Adobe Illustrator 24.2.0, SVG Export Plug-In . SVG Version: 6.00 Build 0)  -->
<svg version="1.1" id="Warstwa_1" xmlns="http://www.w3.org/2000/svg" xmlns:xlink="http://www.w3.org/1999/xlink" x="0px" y="0px"
	 viewBox="0 0 1000 1000" style="enable-background:new 0 0 1000 1000;" xml:space="preserve">
<style type="text/css">
	.st0{fill:none;}
	.st1{fill:#F9DDA9;}
	.st2{fill:#FFFFFF;}
	.st3{fill:#F2B951;}
	.st4{fill:#FDF2DE;}
	.st5{fill:#C4CACD;}
	.st6{fill:#96A1A7;}
	.st7{fill:#F4C46C;}
	.st8{fill:#F6D08A;}
	.st9{fill:#F9DEAB;}
	.st10{fill:#62717B;}
	.st11{fill:#F9DDAB;}
	.st12{fill:#74828A;}
	.st13{fill:#D4D8DB;}
	.st14{fill:#F6CC81;}
	.st15{fill:#2D424F;}
	.st16{fill:#96A0A7;}
	.st17{fill:#F9DCA8;}
	.st18{fill:#F8D79C;}
	.st19{fill:#FCEDD3;}
	.st20{fill:#3F525E;}
	.st21{fill:#919CA3;}
	.st22{fill:#F7D493;}
	.st23{fill:#F3BF5F;}
	.st24{fill:#475A65;}
	.st25{fill:#233947;}
	.st26{fill:#40535F;}
	.st27{fill:#4F616C;}
	.st28{fill:#F4C265;}
	.st29{fill:#F9FAFA;}
	.st30{fill:#546670;}
	.st31{fill:#FCF1DB;}
	.st32{fill:#FCECD0;}
	.st33{fill:#65747E;}
	.st34{fill:#F9E1B3;}
	.st35{fill:#707F87;}
	.st36{fill:#F2BC56;}
	.st37{fill:#B0B8BD;}
	.st38{fill:#FEF8EE;}
	.st39{fill:#F8DCA7;}
	.st40{fill:#86929A;}
	.st41{fill:#9FA9AF;}
</style>
<g>
	<path class="st0" d="M0,0v1000h1000V0H0z M697,315c-0.1,2.8-2.4,5-5.2,5c-0.4,0-0.7-0.1-1.1-0.1c-14.2-2.7-24.5-17-33.5-27.2
		c-11.2-12.6-23.1-24.6-34.5-37c-10.6-11.5-20.8-23.3-31-35.2c-17.6-20.2-38.2-43.2-66-47.7c-6.3-1-3.6-10.6,2.7-9.6
		c15.4,2.5,29,10.6,40.8,20.3c22.8,18.7,40.7,43.4,60.6,65.1c11.4,12.4,23.3,24.4,34.5,37c6.3,7.1,13.6,17.5,22.7,22.3
		c-1.2-15.4-10-30.4-17.7-43.1c-9.2-15.2-20.1-29.3-29.7-44.3c-3.5-5.4,5.2-10.4,8.6-5c10.1,15.8,21.6,30.6,31.1,46.7
		C688.6,277.7,698.6,296.4,697,315z"/>
	<path class="st1" d="M142.9,285.7c0-78.9,64-142.9,142.9-142.9l0,0L142.9,285.7c78.9,0,142.9-64,142.9-142.9l0,0"/>
	<rect x="142.9" y="285.7" class="st2" width="142.9" height="142.9"/>
	<path class="st3" d="M142.9,428.6c0-39.4,32-71.4,71.4-71.4L142.9,428.6c39.4,0,71.4-32,71.4-71.4"/>
	<path class="st4" d="M285.7,428.6c0-78.9,64-142.9,142.9-142.9l0,0L285.7,428.6c78.9,0,142.9-64,142.9-142.9l0,0"/>
	<path class="st5" d="M0,428.6c78.9,0,142.9,64,142.9,142.9l0,0L0,428.6c0,78.9,64,142.9,142.9,142.9l0,0"/>
	<rect x="285.7" y="428.6" class="st2" width="142.9" height="142.9"/>
	<path class="st6" d="M285.7,500c0-39.4,32-71.4,71.4-71.4l0,0L285.7,500c39.4,0,71.4-32,71.4-71.4"/>
	<path class="st7" d="M285.7,500c39.4,0,71.4,32,71.4,71.4L285.7,500c0,39.4,32,71.4,71.4,71.4l0,0"/>
	<path class="st8" d="M357.1,571.4c0-39.4,32-71.4,71.4-71.4L357.1,571.4c39.4,0,71.4-32,71.4-71.4c0,0,0,0,0,0"/>
	<rect x="428.6" y="428.6" class="st2" width="142.9" height="142.9"/>
	<path class="st9" d="M0,714.3c0-78.9,64-142.9,142.9-142.9c0,0,0,0,0,0l0,0L0,714.3c78.9,0,142.9-64,142.9-142.9c0,0,0,0,0,0l0,0"
		/>
	<rect x="142.9" y="571.4" class="st2" width="142.9" height="142.9"/>
	<path class="st10" d="M142.9,642.8c0-39.4,32-71.4,71.4-71.4l0,0L142.9,642.8c39.4,0,71.4-32,71.4-71.4l0,0"/>
	<path class="st11" d="M142.9,642.9c39.4,0,71.4,32,71.4,71.4l0,0L142.9,642.9c0,39.4,32,71.4,71.4,71.4l0,0"/>
	<path class="st5" d="M285.7,714.3c0-78.9,64-142.9,142.9-142.9h0l0,0L285.7,714.3c78.9,0,142.9-64,142.9-142.9l0,0l0,0"/>
	<rect x="428.6" y="571.4" class="st2" width="142.9" height="142.9"/>
	<path class="st12" d="M500,642.8c0-39.4,32-71.4,71.4-71.4l0,0L500,642.8c39.4,0,71.4-32,71.4-71.4c0,0,0,0,0,0l0,0"/>
	<rect x="571.4" y="571.4" class="st2" width="142.9" height="142.9"/>
	<path class="st13" d="M571.4,642.8c0-39.4,32-71.4,71.4-71.4l0,0L571.4,642.8c39.4,0,71.4-32,71.4-71.4l0,0"/>
	<path class="st14" d="M571.4,642.9c39.4,0,71.4,32,71.4,71.4l0,0L571.4,642.9c0,39.4,32,71.4,71.4,71.4l0,0"/>
	<rect x="714.3" y="571.4" class="st2" width="142.9" height="142.9"/>
	<path class="st15" d="M714.3,714.3c0-39.4,32-71.4,71.4-71.4L714.3,714.3c39.4,0,71.4-32,71.4-71.4"/>
	<path class="st16" d="M0,857.1c0-78.9,64-142.9,142.9-142.9L0,857.1c78.9,0,142.9-64,142.9-142.9"/>
	<path class="st17" d="M142.9,714.3c78.9,0,142.9,64,142.9,142.9L142.9,714.3c0,78.9,64,142.9,142.9,142.9"/>
	<path class="st4" d="M285.7,857.1c0-78.9,64-142.9,142.9-142.9l0,0L285.7,857.1c78.9,0,142.9-64,142.9-142.9l0,0"/>
	<rect x="428.6" y="714.3" class="st2" width="142.9" height="142.9"/>
	<path class="st18" d="M428.6,785.7c0-39.4,32-71.4,71.4-71.4l0,0L428.6,785.7c39.4,0,71.4-32,71.4-71.4l0,0"/>
	<path class="st19" d="M500,714.3c39.4,0,71.4,32,71.4,71.4L500,714.3c0,39.4,32,71.4,71.4,71.4"/>
	<path class="st20" d="M428.6,785.7c39.4,0,71.4,32,71.4,71.4l0,0L428.6,785.7c0,39.4,32,71.4,71.4,71.4l0,0"/>
	<path class="st21" d="M500,785.7c39.4,0,71.4,32,71.4,71.4l0,0L500,785.7c0,39.4,32,71.4,71.4,71.4l0,0"/>
	<rect x="571.4" y="714.3" class="st2" width="142.9" height="142.9"/>
	<path class="st22" d="M571.4,714.3c39.4,0,71.4,32,71.4,71.4L571.4,714.3c0,39.4,32,71.4,71.4,71.4c0,0,0,0,0,0"/>
	<path class="st23" d="M642.9,714.3c39.4,0,71.4,32,71.4,71.4L642.9,714.3c0,39.4,32,71.4,71.4,71.4"/>
	<path class="st24" d="M642.9,785.7c39.4,0,71.4,32,71.4,71.4l0,0L642.9,785.7c0,39.4,32,71.4,71.4,71.4l0,0"/>
	<path class="st25" d="M714.3,714.3c78.9,0,142.9,64,142.9,142.9L714.3,714.3c0,78.9,64,142.9,142.9,142.9"/>
	<rect y="857.1" class="st2" width="142.9" height="142.9"/>
	<path class="st26" d="M0,928.6c0-39.4,32-71.4,71.4-71.4l0,0L0,928.6c39.4,0,71.4-32,71.4-71.4c0,0,0,0,0,0l0,0"/>
	<path class="st27" d="M71.4,928.6c0-39.4,32-71.4,71.4-71.4l0,0L71.4,928.6c39.4,0,71.4-32,71.4-71.4c0,0,0,0,0,0l0,0"/>
	<path class="st28" d="M0,1000c0-39.4,32-71.4,71.4-71.4l0,0L0,1000c39.4,0,71.4-32,71.4-71.4l0,0"/>
	<path class="st29" d="M71.4,1000c0-39.4,32-71.4,71.4-71.4c0,0,0,0,0,0l0,0L71.4,1000c39.4,0,71.4-32,71.4-71.4l0,0"/>
	<path class="st30" d="M142.9,1000c0-78.9,64-142.9,142.9-142.9L142.9,1000c78.9,0,142.9-64,142.9-142.9"/>
	<path class="st31" d="M285.7,857.1c78.9,0,142.9,64,142.9,142.9l0,0L285.7,857.1c0,78.9,64,142.9,142.9,142.9l0,0"/>
	<path class="st32" d="M428.6,1000c0-78.9,64-142.9,142.9-142.9L428.6,1000c78.9,0,142.9-64,142.9-142.9"/>
	<rect x="571.4" y="857.1" class="st2" width="142.9" height="142.9"/>
	<path class="st33" d="M571.4,857.1c39.4,0,71.4,32,71.4,71.4l0,0L571.4,857.1c0,39.4,32,71.4,71.4,71.4c0,0,0,0,0,0l0,0"/>
	<path class="st34" d="M642.9,857.1c39.4,0,71.4,32,71.4,71.4l0,0L642.9,857.1c0,39.4,32,71.4,71.4,71.4l0,0"/>
	<path class="st35" d="M571.4,928.6c39.4,0,71.4,32,71.4,71.4c0,0,0,0,0,0l0,0L571.4,928.6c0,39.4,32,71.4,71.4,71.4l0,0"/>
	<rect x="714.3" y="857.1" class="st2" width="142.9" height="142.9"/>
	<path class="st36" d="M714.3,857.1c39.4,0,71.4,32,71.4,71.4L714.3,857.1c0,39.4,32,71.4,71.4,71.4"/>
	<path class="st37" d="M785.7,857.1c39.4,0,71.4,32,71.4,71.4l0,0L785.7,857.1c0,39.4,32,71.4,71.4,71.4l0,0"/>
	<path class="st38" d="M714.3,928.6c39.4,0,71.4,32,71.4,71.4c0,0,0,0,0,0L714.3,928.6c0,39.4,32,71.4,71.4,71.4"/>
	<path class="st39" d="M785.7,928.6c39.4,0,71.4,32,71.4,71.4c0,0,0,0,0,0l0,0L785.7,928.6c0,39.4,32,71.4,71.4,71.4l0,0"/>
	<rect x="857.1" y="857.1" class="st2" width="142.9" height="142.9"/>
	<path class="st40" d="M928.6,857.1c39.4,0,71.4,32,71.4,71.4l0,0L928.6,857.1c0,39.4,32,71.4,71.4,71.4c0,0,0,0,0,0l0,0"/>
	<path class="st41" d="M857.1,1000c0-39.4,32-71.4,71.4-71.4l0,0L857.1,1000c39.4,0,71.4-32,71.4-71.4l0,0"/>
</g>
</svg>
