<?xml version="1.0" encoding="utf-8"?>
<!-- Generator: Adobe Illustrator 24.2.0, SVG Export Plug-In . SVG Version: 6.00 Build 0)  -->
<svg version="1.1" id="Capa_1" xmlns="http://www.w3.org/2000/svg" xmlns:xlink="http://www.w3.org/1999/xlink" x="0px" y="0px"
	 viewBox="0 0 512 512" style="enable-background:new 0 0 512 512;" xml:space="preserve">
<style type="text/css">
	.st0{fill:#FFFFFF;}
</style>
<g>
	<g>
		<path class="st0" d="M111.7,344.7c-8.6,0-15.5,7-15.5,15.5s7,15.5,15.5,15.5s15.5-7,15.5-15.5
			C127.2,351.7,120.3,344.7,111.7,344.7z"/>
	</g>
</g>
<g>
	<g>
		<path class="st0" d="M432.4,344.7c-8.6,0-15.5,7-15.5,15.5s7,15.5,15.5,15.5s15.5-7,15.5-15.5
			C447.9,351.7,440.9,344.7,432.4,344.7z"/>
	</g>
</g>
<g>
	<g>
		<path class="st0" d="M495.9,245.2L438.2,226l-27-74.2c-3.4-9.3-12.3-15.5-22.1-15.5h-69.4v-16.5c0-8.6-7-15.5-15.5-15.5H15.5
			c-8.6,0-15.5,7-15.5,15.5v216.4c0,8.6,7,15.5,15.5,15.5h49.4c-0.5,2.8-0.8,5.6-0.8,8.5c0,26.2,21.3,47.6,47.6,47.6
			s47.6-21.3,47.6-47.6c0-2.9-0.3-5.8-0.8-8.5h227c-0.5,2.8-0.8,5.6-0.8,8.5c0,26.2,21.3,47.6,47.6,47.6s47.6-21.3,47.6-47.6
			c0-3.7-0.4-7.3-1.2-10.8l15.9-7.9c10.8-5.4,17.4-16.2,17.4-28.2v-45.7C512,257.4,505.5,248.4,495.9,245.2z M15,119.7
			c0-0.3,0.2-0.5,0.5-0.5h288.6c0.3,0,0.5,0.2,0.5,0.5v160.8H15V119.7z M111.7,392.8c-18,0-32.6-14.6-32.6-32.6s14.6-32.6,32.6-32.6
			s32.6,14.6,32.6,32.6C144.3,378.2,129.7,392.8,111.7,392.8z M304.6,336.7H153c-8.2-14.3-23.6-24-41.3-24s-33.1,9.7-41.3,24H15.5
			c-0.3,0-0.5-0.2-0.5-0.5v-40.6h289.6V336.7z M406.7,183.3l15,41.1h-16.1l-15-41.1L406.7,183.3L406.7,183.3z M319.6,151.3h69.4
			c3.6,0,6.8,2.3,8,5.6l4.2,11.4h-81.6V151.3z M319.6,183.3h55l15,41.1h-70V183.3z M432.4,392.8c-18,0-32.6-14.6-32.6-32.6
			s14.6-32.6,32.6-32.6s32.6,14.6,32.6,32.6S450.3,392.8,432.4,392.8z M497,280.6h-8.5c-4.1,0-7.5,3.4-7.5,7.5s3.4,7.5,7.5,7.5h8.5
			v17.7c0,6.3-3.5,12-9.1,14.8l-14.8,7.4c-8.4-13.7-23.5-22.9-40.7-22.9c-17.7,0-33.1,9.7-41.3,24h-71.4v-41.1h136.8
			c4.1,0,7.5-3.4,7.5-7.5s-3.4-7.5-7.5-7.5H319.6v-41.1h111.5l60,20c3.5,1.2,5.8,4.4,5.8,8.1L497,280.6L497,280.6z"/>
	</g>
</g>
<g>
	<g>
		<path class="st0" d="M251.7,193.4l-56.1-32.1c-3.6-2.1-8.2-0.8-10.2,2.8c-2.1,3.6-0.8,8.2,2.8,10.2l31.6,18.1H71.6
			c-4.1,0-7.5,3.4-7.5,7.5s3.4,7.5,7.5,7.5h148.1l-31.6,18.1c-3.6,2.1-4.8,6.6-2.8,10.2c1.4,2.4,3.9,3.8,6.5,3.8
			c1.3,0,2.5-0.3,3.7-1l56.1-32.1c2.3-1.3,3.8-3.8,3.8-6.5C255.5,197.2,254,194.7,251.7,193.4z"/>
	</g>
</g>
</svg>
